<svg xmlns="http://www.w3.org/2000/svg" width="1600" height="900" viewBox="0 0 1600 900" role="img" aria-labelledby="title description">
  <title id="title">Spindle Alarm Diagnostics</title>
  <desc id="description">Vcocnc technical editorial cover for Spindle Alarm Diagnostics.</desc>
  <rect width="1600" height="900" fill="#f4f7fa"/>
  <rect x="0" y="0" width="860" height="900" fill="#07182b"/>
  <path d="M860 0h740v900H760c92-148 138-300 138-456C898 280 885 132 860 0z" fill="#0e3153"/>
  <path d="M0 90h860" stroke="#f5c400" stroke-width="12"/>
  <text x="105" y="228" fill="#f5c400" font-family="Arial, Helvetica, sans-serif" font-size="32" font-weight="700">FIELD GUIDE</text>
  <text x="105" y="390" fill="#ffffff" font-family="Arial, Helvetica, sans-serif" font-size="78" font-weight="700">Spindle Alarm</text>
  <text x="105" y="492" fill="#ffffff" font-family="Arial, Helvetica, sans-serif" font-size="78" font-weight="700">Diagnostics</text>
  <text x="108" y="675" fill="#b9c9d7" font-family="Arial, Helvetica, sans-serif" font-size="29">Industrial automation insight | Vcocnc</text>
  <g fill="none" stroke="#f5c400" stroke-width="16" stroke-linecap="round" stroke-linejoin="round"><rect x="1040" y="238" width="310" height="390" rx="18"/><circle cx="1195" cy="352" r="58"/><path d="M1102 492h186M1102 548h116"/><path d="M1360 320h95v250h-95"/><path d="M1010 690h420"/></g>
  <circle cx="1510" cy="90" r="28" fill="#f5c400"/>
</svg>