<svg xmlns="http://www.w3.org/2000/svg" width="1600" height="900" viewBox="0 0 1600 900" role="img" aria-labelledby="title description">
  <title id="title">SR-3iA/U Ceiling-Mount Cell</title>
  <desc id="description">Vcocnc technical editorial cover for SR-3iA/U Ceiling-Mount Cell.</desc>
  <rect width="1600" height="900" fill="#f4f7fa"/>
  <rect x="0" y="0" width="860" height="900" fill="#07182b"/>
  <path d="M860 0h740v900H760c92-148 138-300 138-456C898 280 885 132 860 0z" fill="#0e3153"/>
  <path d="M0 90h860" stroke="#f5c400" stroke-width="12"/>
  <text x="105" y="228" fill="#f5c400" font-family="Arial, Helvetica, sans-serif" font-size="32" font-weight="700">SCARA UPDATE</text>
  <text x="105" y="390" fill="#ffffff" font-family="Arial, Helvetica, sans-serif" font-size="78" font-weight="700">SR-3iA/U</text>
  <text x="105" y="492" fill="#ffffff" font-family="Arial, Helvetica, sans-serif" font-size="78" font-weight="700">Ceiling-Mount Cell</text>
  <text x="108" y="675" fill="#b9c9d7" font-family="Arial, Helvetica, sans-serif" font-size="29">Industrial automation insight | Vcocnc</text>
  <g fill="none" stroke="#f5c400" stroke-width="16" stroke-linecap="round" stroke-linejoin="round"><path d="M1050 690h390M1120 690V300h140v104h-80v100h160v-74M1340 430h70v190M1375 620v68"/><circle cx="1190" cy="405" r="28"/><circle cx="1340" cy="430" r="28"/></g>
  <circle cx="1510" cy="90" r="28" fill="#f5c400"/>
</svg>